<svg width="1920" height="1080" viewBox="0 0 1920 1080" xmlns="http://www.w3.org/2000/svg"><rect width="1920" height="1080" fill="#ffffff"/><path d="M 0,1080 C 0,1080 0,216 0,216 C 170.7942583732057,169.38755980861242 341.5885167464114,122.77511961722487 452,137 C 562.4114832535886,151.22488038277513 612.4401913875599,226.28708133971293 714,264 C 815.5598086124401,301.7129186602871 968.6507177033493,302.07655502392345 1131,268 C 1293.3492822966507,233.92344497607655 1464.956937799043,165.4066985645933 1598,151 C 1731.043062200957,136.5933014354067 1825.5215311004786,176.29665071770336 1920,216 C 1920,216 1920,1080 1920,1080 Z" fill="#66b9a6" opacity="0.12"/><path d="M 0,1080 C 0,1080 0,432 0,432 C 129.76076555023923,433.0047846889952 259.52153110047846,434.0095693779904 364,418 C 468.47846889952154,401.9904306220096 547.6746411483255,368.9665071770336 699,390 C 850.3253588516745,411.0334928229664 1073.77990430622,486.12440191387554 1207,492 C 1340.22009569378,497.87559808612446 1383.2057416267942,434.53588516746413 1487,413 C 1590.7942583732058,391.46411483253587 1755.3971291866028,411.73205741626793 1920,432 C 1920,432 1920,1080 1920,1080 Z" fill="#66b9a6" opacity="0.24"/><path d="M 0,1080 C 0,1080 0,648 0,648 C 155.67464114832535,647.7129186602871 311.3492822966507,647.4258373205741 423,663 C 534.6507177033493,678.5741626794259 602.2775119617226,710.0095693779905 740,687 C 877.7224880382774,663.9904306220095 1085.5406698564595,586.5358851674641 1206,589 C 1326.4593301435405,591.4641148325359 1359.55980861244,673.8468899521532 1464,697 C 1568.44019138756,720.1531100478468 1744.22009569378,684.0765550239234 1920,648 C 1920,648 1920,1080 1920,1080 Z" fill="#66b9a6" opacity="0.36"/><path d="M 0,1080 C 0,1080 0,864 0,864 C 98.58373205741628,863.5215311004785 197.16746411483257,863.0430622009569 324,877 C 450.83253588516743,890.9569377990431 605.913875598086,919.3492822966507 750,928 C 894.086124401914,936.6507177033493 1027.177033492823,925.5598086124402 1155,905 C 1282.822966507177,884.4401913875598 1405.3779904306218,854.4114832535885 1532,846 C 1658.6220095693782,837.5885167464115 1789.311004784689,850.7942583732058 1920,864 C 1920,864 1920,1080 1920,1080 Z" fill="#66b9a6" opacity="0.48"/></svg>